<svg width="11" height="6" viewBox="0 0 11 6" fill="none" xmlns="http://www.w3.org/2000/svg">
<path d="M10.2365 0.134519L5.49952 4.91646L0.762546 0.134519C0.677912 0.0489095 0.564298 0.000981443 0.44599 0.000981443C0.327682 0.000981443 0.214068 0.0489095 0.129434 0.134519C0.0884543 0.176101 0.0558984 0.225731 0.0336731 0.280506C0.0114478 0.335281 0 0.394097 0 0.453511C0 0.512925 0.0114478 0.571742 0.0336731 0.626516C0.0558984 0.681291 0.0884543 0.730922 0.129434 0.772503L5.16874 5.86067C5.25724 5.95 5.37593 6 5.49952 6C5.6231 6 5.74179 5.95 5.83029 5.86067L10.8696 0.773485C10.9109 0.731873 10.9437 0.68212 10.9661 0.627164C10.9885 0.572207 11 0.513162 11 0.453511C11 0.393861 10.9885 0.334815 10.9661 0.279859C10.9437 0.224903 10.9109 0.17515 10.8696 0.133538C10.785 0.0479276 10.6713 0 10.553 0C10.4347 0 10.3211 0.0479276 10.2365 0.133538V0.134519Z" fill="white"/>
</svg>
