<svg width="20" height="20" viewBox="0 0 20 20" fill="none" xmlns="http://www.w3.org/2000/svg">
<path d="M10.0811 4.98407C10.5755 4.98407 11.0589 5.13069 11.47 5.4054C11.8811 5.6801 12.2015 6.07055 12.3908 6.52736C12.58 6.98418 12.6295 7.48684 12.533 7.9718C12.4366 8.45675 12.1985 8.90221 11.8488 9.25184C11.4992 9.60147 11.0537 9.83957 10.5688 9.93603C10.0838 10.0325 9.58116 9.98299 9.12435 9.79377C8.66753 9.60455 8.27708 9.28412 8.00238 8.873C7.72768 8.46187 7.58105 7.97852 7.58105 7.48407C7.58181 6.82126 7.84544 6.18581 8.31412 5.71714C8.7828 5.24846 9.41824 4.98482 10.0811 4.98407ZM10.0811 8.73407C10.3283 8.73407 10.57 8.66076 10.7755 8.52341C10.9811 8.38605 11.1413 8.19083 11.2359 7.96242C11.3305 7.73402 11.3553 7.48268 11.307 7.24021C11.2588 6.99773 11.1398 6.775 10.9649 6.60019C10.7901 6.42537 10.5674 6.30632 10.3249 6.25809C10.0824 6.20986 9.83111 6.23461 9.6027 6.32922C9.37429 6.42383 9.17907 6.58405 9.04172 6.78961C8.90436 6.99517 8.83105 7.23684 8.83105 7.48407C8.83144 7.81547 8.96326 8.13319 9.19759 8.36753C9.43193 8.60187 9.74965 8.73369 10.0811 8.73407Z" fill="white"/>
<path d="M5.27707 2.6764C6.46485 1.48891 8.0504 0.7835 9.72771 0.696302C11.405 0.609105 13.0552 1.1463 14.3597 2.20422C15.6642 3.26214 16.5306 4.76577 16.7917 6.42493C17.0527 8.08408 16.69 9.78113 15.7734 11.1885L11.0505 18.4391C10.9454 18.6004 10.8017 18.7329 10.6324 18.8247C10.4631 18.9165 10.2736 18.9645 10.081 18.9645C9.88848 18.9645 9.69897 18.9165 9.52969 18.8247C9.36041 18.7329 9.2167 18.6004 9.1116 18.4391L4.38851 11.1885C3.53803 9.88296 3.16217 8.32471 3.32394 6.77497C3.48572 5.22523 4.17528 3.77819 5.27707 2.6764ZM5.43586 10.5062L10.081 17.6371L14.7262 10.5062C16.1481 8.32347 15.8431 5.40237 14.0011 3.56026C13.4863 3.04546 12.8752 2.6371 12.2026 2.35849C11.5299 2.07988 10.809 1.93648 10.081 1.93648C9.35298 1.93648 8.63208 2.07988 7.95948 2.35849C7.28687 2.6371 6.67572 3.04546 6.16094 3.56026C4.3189 5.40237 4.01398 8.32347 5.43586 10.5062Z" fill="white"/>
</svg>
